<svg xmlns="http://www.w3.org/2000/svg" xmlns:xlink="http://www.w3.org/1999/xlink" x="0" y="0" version="1.1" viewBox="0 0 402.3 200" style="enable-background:new 0 0 402.3 200" xml:space="preserve"><style type="text/css">.st1{stroke:#005fd1}.st1,.st2,.st4,.st7{fill:none;stroke-width:3;stroke-miterlimit:10}.st2{stroke:#1da1f2}.st4{stroke:#71c9f8}.st7{stroke:#97e3ff}.st11{fill:#1da1f2}.st12{fill:#97e3ff}.st13{fill:#71c9f8}.st14{fill:#005fd1}.st15{font-family:HelveticaNeue-Bold,system-ui,sans-serif;font-weight:700}.st16{font-size:11.5px}</style><g id="lines"><polyline points="382.2 205.4 332.2 176.5 332.2 147.6" class="st1"/><polyline points="357.2 104.3 357.2 133.2 407.2 162.1" class="st1"/><line x1="307.2" x2="257.2" y1="104.3" y2="133.2" class="st2"/><line x1="332.2" x2="282.2" y1="205.4" y2="176.5" class="st1"/><polyline points="157.2 46.6 157.2 75.5 82.2 118.8 32.2 147.6 57.2 162.1" class="st4"/><polyline points="82.2 176.5 82.2 147.6 182.2 89.9 182.2 147.6" class="st2"/><polyline points="207.2 190.9 182.2 205.4 132.2 176.5 106.3 190.9 80.9 205.4" class="st1"/><polyline points="32.2 205.4 157.2 133.2 157.2 162.1 232.2 205.4" class="st1"/><line x1="307.2" x2="307.2" y1="133.2" y2="104.3" class="st2"/><polyline points="257.2 162.1 207.2 133.2 207.2 75.5 182.2 89.9" class="st2"/><polyline points="32.2 61 82.2 89.9 107.2 75.5 157.2 46.6 132.2 32.2" class="st7"/><line x1="57.2" x2="82.2" y1="104.3" y2="118.8" class="st4"/><polyline points="207.2 133.2 257.2 104.3 232.2 89.9 232.2 32.2" class="st4"/><polyline points="407.2 162.1 382.2 176.5 332.2 147.6 257.2 190.9" class="st1"/><line x1="282.2" x2="307.2" y1="32.2" y2="46.6" class="st4"/><polyline points="232.2 32.2 182.2 61 182.2 32.2 157.2 17.7 107.2 46.6 82.2 32.2" class="st7"/><line x1="257.2" x2="257.2" y1="162.1" y2="190.9" class="st1"/><line x1="257.2" x2="282.2" y1="190.9" y2="205.4" class="st1"/><line x1="257.2" x2="307.2" y1="75.5" y2="104.3" class="st2"/><line x1="407.2" x2="357.2" y1="46.6" y2="17.7" class="st4"/><polyline points="307.2 75.5 332.2 89.9 357.2 104.3" class="st2"/><line x1="332.2" x2="332.2" y1="32.2" y2="89.9" class="st4"/><polyline points="407.2 75.5 382.2 61 357.2 75.5 357.2 46.6" class="st2"/><polyline points="382.2 61 382.2 118.8 407.2 133.2" class="st1"/><line x1="257.2" x2="357.2" y1="162.1" y2="104.3" class="st1"/><line x1="183.5" x2="208.5" y1="61" y2="75.5" class="st4"/><line x1="57.2" x2="57.2" y1="162.1" y2="191.4" class="st2"/><polyline points="332.2 32.2 357.2 46.6 382.2 32.2" class="st4"/><polyline points="332.8 32.2 282.8 61 232.8 32.2" class="st4"/><line x1="182.2" x2="257.2" y1="147.6" y2="190.9" class="st1"/><polyline points="32.2 205.4 32.2 176.5 7.2 162.1" class="st2"/></g><g id="circles"><circle cx="32.2" cy="176.5" r="3.3" class="st11"/><circle cx="132.2" cy="32.2" r="3.3" class="st12"/><circle cx="107.2" cy="46.6" r="3.3" class="st12"/><circle cx="82.2" cy="32.2" r="3.3" class="st12"/><circle cx="232.2" cy="32.2" r="3.3" class="st13"/><circle cx="182.2" cy="61" r="3.3" class="st12"/><circle cx="182.2" cy="89.9" r="3.3" class="st11"/><circle cx="157.2" cy="46.6" r="3.3" class="st12"/><circle cx="207.2" cy="75.5" r="3.3" class="st11"/><circle cx="82.2" cy="118.8" r="3.3" class="st13"/><circle cx="32.2" cy="61" r="3.3" class="st12"/><circle cx="57.2" cy="104.3" r="3.3" class="st13"/><circle cx="82.2" cy="176.5" r="3.3" class="st14"/><circle cx="57.2" cy="190.9" r="3.3" class="st14"/><circle cx="207.2" cy="191.4" r="3.3" class="st14"/><circle cx="257.2" cy="133.2" r="3.3" class="st11"/><circle cx="257.2" cy="75.5" r="3.3" class="st11"/><circle cx="282.2" cy="32.2" r="3.3" class="st13"/><circle cx="307.2" cy="104.3" r="3.3" class="st11"/><circle cx="307.2" cy="46.6" r="3.3" class="st13"/><circle cx="257.2" cy="190.9" r="3.3" class="st14"/><circle cx="207.2" cy="133.2" r="3.3" class="st11"/><circle cx="257.2" cy="162.1" r="3.3" class="st14"/><circle cx="282.2" cy="176.5" r="3.3" class="st14"/><circle cx="307.2" cy="133.2" r="3.3" class="st14"/><circle cx="32.2" cy="147.6" r="3.3" class="st13"/><circle cx="82.2" cy="147.6" r="3.3" class="st11"/><circle cx="132.2" cy="176.5" r="3.3" class="st14"/><circle cx="232.2" cy="89.9" r="3.3" class="st13"/><circle cx="157.2" cy="75.5" r="3.3" class="st13"/><circle cx="182.2" cy="147.6" r="3.3" class="st14"/><circle cx="157.2" cy="133.2" r="3.3" class="st14"/><circle cx="157.2" cy="162.1" r="3.3" class="st14"/><circle cx="257.2" cy="104.3" r="3.3" class="st13"/><circle cx="282.2" cy="61" r="3.3" class="st13"/><circle cx="182.2" cy="32.2" r="3.3" class="st12"/><circle cx="157.2" cy="17.7" r="3.3" class="st12"/><circle cx="82.2" cy="89.9" r="3.3" class="st12"/><circle cx="57.2" cy="162.1" r="3.3" class="st11"/><circle cx="332.2" cy="147.6" r="3.3" class="st14"/><circle cx="332.2" cy="177" r="3.3" class="st14"/><circle cx="357.2" cy="104.3" r="3.3" class="st14"/><circle cx="307.2" cy="75.5" r="3.3" class="st11"/><circle cx="357.2" cy="133.2" r="3.3" class="st14"/><circle cx="332.2" cy="89.9" r="3.3" class="st11"/><circle cx="332.2" cy="32.2" r="3.3" class="st13"/><circle cx="357.2" cy="17.7" r="3.3" class="st13"/><circle cx="357.2" cy="46.6" r="3.3" class="st13"/><circle cx="382.2" cy="32.2" r="3.3" class="st13"/><circle cx="357.2" cy="75.5" r="3.3" class="st11"/><circle cx="382.2" cy="61" r="3.3" class="st11"/><circle cx="382.2" cy="118.8" r="3.3" class="st14"/><circle cx="382.2" cy="176.5" r="3.3" class="st14"/><circle cx="7.2" cy="162.1" r="3.3" class="st11"/></g><g id="text"><text class="st14 st15 st16" transform="matrix(0.75 -0.433 0 1 90.5106 161.479)">{$members} public members</text><text class="st11 st15 st16" transform="matrix(0.75 -0.433 0 1 82.1912 108.8037)">{$Repos} public repos</text></g></svg>